<svg width="829" height="805" viewBox="0 0 829 805" fill="none" xmlns="http://www.w3.org/2000/svg">
<g opacity="0.3">
<path d="M215.111 821.172V365.601C215.111 362.795 216.225 360.104 218.209 358.12C220.194 356.136 222.884 355.021 225.69 355.021H272.903C275.709 355.021 278.4 356.136 280.384 358.12C282.368 360.104 283.483 362.795 283.483 365.601V822.36L215.111 821.172Z" fill="#FF5757"/>
<path d="M371.047 822.6V460.359C371.047 457.553 372.162 454.862 374.146 452.878C376.13 450.894 378.821 449.78 381.627 449.78H428.84C431.645 449.78 434.336 450.894 436.321 452.878C438.305 454.862 439.419 457.553 439.419 460.359V821.82L371.047 822.6Z" fill="#C0D1FF"/>
<path d="M93.9589 392.228C93.264 392.227 92.584 392.026 92.001 391.648C91.418 391.269 90.9571 390.73 90.6738 390.096C90.3906 389.461 90.2972 388.758 90.4049 388.072C90.5125 387.385 90.8167 386.745 91.2807 386.227L249.143 210.155L404.501 297.392L560.784 28.1136L719.993 159.15C720.358 159.45 720.661 159.82 720.883 160.237C721.106 160.654 721.244 161.111 721.29 161.581C721.336 162.052 721.288 162.527 721.15 162.979C721.013 163.432 720.787 163.852 720.487 164.217C720.186 164.582 719.817 164.885 719.399 165.107C718.982 165.329 718.525 165.467 718.054 165.512C717.584 165.558 717.109 165.51 716.656 165.372C716.204 165.234 715.784 165.008 715.419 164.707L562.755 39.0565L407.165 307.142L250.65 219.256L96.6393 391.031C96.3021 391.408 95.889 391.71 95.4271 391.916C94.9651 392.122 94.4648 392.228 93.9589 392.228Z" fill="#3F3D56"/>
<path d="M93.3603 422.215C111.91 422.215 126.947 407.178 126.947 388.629C126.947 370.081 111.91 355.044 93.3603 355.044C74.8111 355.044 59.774 370.081 59.774 388.629C59.774 407.178 74.8111 422.215 93.3603 422.215Z" fill="#97B9FD"/>
<path d="M249.297 248.291C267.846 248.291 282.883 233.254 282.883 214.706C282.883 196.157 267.846 181.12 249.297 181.12C230.748 181.12 215.71 196.157 215.71 214.706C215.71 233.254 230.748 248.291 249.297 248.291Z" fill="#FF5757"/>
<path d="M405.233 335.852C423.782 335.852 438.819 320.816 438.819 302.267C438.819 283.719 423.782 268.682 405.233 268.682C386.684 268.682 371.647 283.719 371.647 302.267C371.647 320.816 386.684 335.852 405.233 335.852Z" fill="#B0B0B0"/>
<path d="M561.17 67.1705C579.719 67.1705 594.756 52.1339 594.756 33.5852C594.756 15.0366 579.719 0 561.17 0C542.62 0 527.583 15.0366 527.583 33.5852C527.583 52.1339 542.62 67.1705 561.17 67.1705Z" fill="#6A93FF"/>
<path d="M682.92 820.985V295.911C682.92 289.177 687.657 283.717 693.5 283.717H740.712C746.555 283.717 751.292 289.176 751.292 295.911V822.36L682.92 820.985Z" fill="#FF5757"/>
<path d="M59.1731 821.699V568.201C59.1731 564.951 63.91 562.314 69.7528 562.314H116.966C122.808 562.314 127.545 564.953 127.545 568.201V822.36L59.1731 821.699Z" fill="#C0D1FF"/>
<path d="M526.982 820.807V224.944C526.982 217.303 531.719 211.107 537.562 211.107H584.775C590.618 211.107 595.354 217.303 595.354 224.944V822.36L526.982 820.807Z" fill="#C0D1FF"/>
<path d="M732.743 211.32C751.292 211.32 766.329 196.284 766.329 177.735C766.329 159.186 751.292 144.15 732.743 144.15C714.194 144.15 699.157 159.186 699.157 177.735C699.157 196.284 714.194 211.32 732.743 211.32Z" fill="#B0B0B0"/>
</g>
</svg>
