<svg width="1440" height="482" viewBox="0 0 1440 482" fill="none" xmlns="http://www.w3.org/2000/svg">
<path d="M479 297.5C282.6 329.1 -6.5 387.667 -41 435L-52 489L1461.5 501L1467.5 2.00003C1477.5 -8.49995 1383.5 57 1304 102C1206.06 157.436 1168.5 203.5 963.5 257C758.5 310.5 724.5 258 479 297.5Z" fill="#FF5757"/>
<path d="M436.5 358.5C303.868 370.848 -8 433.333 -15.5 468.5L-36 541.5L1467.5 508.5V61C1455.33 65 1425 86.5 1327 161C1203.13 255.169 1140.5 301 1049 319.5C944.954 340.537 868.5 349.5 773 343.5C677.5 337.5 581.5 345 436.5 358.5Z" fill="#FF7070"/>
<path d="M609.5 407.858C310.5 407.858 9.66667 476.191 -13 513.858L6.5 561.358L1486 532.358C1523 407.858 1583.5 46.858 1511.5 91.858C1438.82 137.281 1416.5 223.358 1227 329.858C1037.5 436.358 865.083 407.858 609.5 407.858Z" fill="#FF8181"/>
</svg>
